<svg xmlns="http://www.w3.org/2000/svg" viewBox="0 0 64 64">
  <rect width="64" height="64" rx="14" fill="#111827"/>
  <path d="M14 22.5c0-2 1.6-3.5 3.5-3.5h29c1.9 0 3.5 1.5 3.5 3.5v19c0 2-1.6 3.5-3.5 3.5h-29c-1.9 0-3.5-1.5-3.5-3.5v-19Z" fill="#F8FAFC"/>
  <path d="m16.5 22 15.1 12.5c.3.3.8.3 1.2 0L47.8 22" fill="none" stroke="#111827" stroke-width="4" stroke-linecap="round" stroke-linejoin="round"/>
  <path d="M23 42V27.5h4.6l8.8 10.1V27.5H41V42h-4.6l-8.8-10.1V42H23Z" fill="#0F766E"/>
  <path d="M47.6 13.4 51 21l-7.6-3.4-7.6 3.4 3.4-7.6-3.4-7.6 7.6 3.4L51 5.8l-3.4 7.6Z" fill="#14B8A6"/>
</svg>
